<svg width="58" height="77" viewBox="0 0 58 77" fill="none" xmlns="http://www.w3.org/2000/svg">
<g clip-path="url(#clip0_48_12)">
<mask id="mask0_48_12" style="mask-type:luminance" maskUnits="userSpaceOnUse" x="0" y="0" width="58" height="77">
<path d="M58 0H0V77H58V0Z" fill="white"/>
</mask>
<g mask="url(#mask0_48_12)">
<path d="M57.7498 38.7256V53.2037L39.0854 60.3555L29.1426 53.2037L17.63 61.4021L0.5354 52.3315V38.7256C1.40757 37.679 8.03607 30.1784 15.1879 20.0612C19.3743 14.1304 23.7351 7.50191 26.7005 0.873409L26.875 34.3648C26.3517 34.5392 25.8284 34.8881 25.4795 35.2369C24.6073 36.1091 23.9096 37.3302 23.9096 38.7256C23.9096 40.1211 24.4329 41.3421 25.4795 42.2143C26.3517 43.0865 27.7471 43.6098 29.1426 43.6098C31.9336 43.6098 34.2012 41.3421 34.2012 38.7256C34.2012 37.3302 33.6779 36.1091 32.6313 35.2369C32.2824 34.8881 31.7591 34.5392 31.4103 34.3648V0.698975C34.5501 7.32748 38.7365 13.956 42.9229 19.8867C50.2491 30.1784 56.8777 37.679 57.7498 38.7256Z" fill="#050463"/>
<path d="M4.54736 76.4034L29.1426 58.7856L53.7378 76.4034H4.54736Z" fill="#050463"/>
<path d="M0.5354 57.3901L13.618 64.3675L0.709836 73.6125L0.5354 57.3901Z" fill="#050463"/>
<path d="M57.7498 73.7869L43.4462 63.4953L57.7498 58.0878V73.7869Z" fill="#050463"/>
</g>
</g>
<defs>
<clipPath id="clip0_48_12">
<rect width="58" height="77" fill="white"/>
</clipPath>
</defs>
</svg>
